Coordinates
version=1
nRows=16
nColumns=40
inDegrees=yes

Units are S.I. units (second, meters, Newtons, ...)
Angles are in degrees.

endheader
time	pelvis_tilt	pelvis_list	pelvis_rotation	pelvis_tx	pelvis_ty	pelvis_tz	hip_flexion_r	hip_adduction_r	hip_rotation_r	knee_angle_r	knee_angle_r_beta	ankle_angle_r	subtalar_angle_r	mtp_angle_r	hip_flexion_l	hip_adduction_l	hip_rotation_l	knee_angle_l	knee_angle_l_beta	ankle_angle_l	subtalar_angle_l	mtp_angle_l	lumbar_extension	lumbar_bending	lumbar_rotation	arm_flex_r	arm_add_r	arm_rot_r	elbow_flex_r	pro_sup_r	wrist_flex_r	wrist_dev_r	arm_flex_l	arm_add_l	arm_rot_l	elbow_flex_l	pro_sup_l	wrist_flex_l	wrist_dev_l
     16.83500000	     -5.17648489	     -3.51089039	     -3.15728326	      0.95485863	      0.92343150	      0.44750685	     30.22062869	     -1.61152877	    -15.44796713	      9.97418781	      9.97418781	      1.11926048	      8.30889806	     13.75173222	      3.77916342	     -3.86116041	    -12.86185113	     14.48672229	     14.48672229	     16.58277449	     -6.47254639	     -8.32804363	    -11.02346000	      1.16490544	      1.66690314	    -14.22128405	    -16.65203623	    -18.95598146	     23.18083462	     47.94216940	      0.00000000	      0.00000000	     20.03853008	    -16.25699095	     -0.49827676	     58.02473925	     46.37758017	      0.00000000	      0.00000000
     16.84721429	     -5.07966060	     -3.51945745	     -3.32110320	      0.95696990	      0.92223974	      0.44955643	     29.66494614	     -1.24242919	    -15.44762958	     10.11583739	     10.11583739	      1.37320745	      8.18400665	     13.61767281	      2.80115586	     -3.91009169	    -12.96967905	     14.17386726	     14.17386726	     17.02588914	     -6.42976529	     -8.26891423	    -10.84184710	      1.25125309	      1.76231659	    -14.75067056	    -16.62809053	    -18.92131871	     23.26064195	     47.91803862	      0.00000000	      0.00000000	     19.85019681	    -16.22174151	     -0.66530958	     58.62621079	     46.40526078	      0.00000000	      0.00000000
     16.85942857	     -4.96806789	     -3.40081610	     -3.50049948	      0.95937912	      0.92103082	      0.45163790	     29.13545441	     -1.06664442	    -15.26547580	     10.70887726	     10.70887726	      1.38176299	      7.89404297	     12.53437046	      1.70683858	     -3.79766088	    -13.14586449	     13.70612706	     13.70612706	     17.58332607	     -6.11000658	     -7.78205942	    -10.65713339	      1.18943319	      1.86841564	    -15.39663291	    -16.47359989	    -18.84326171	     23.90440696	     47.84577154	      0.00000000	      0.00000000	     19.20579936	    -16.17505062	     -1.12777605	     60.24971931	     46.47651655	      0.00000000	      0.00000000
     16.87164286	     -4.81954785	     -3.41737865	     -3.58044471	      0.96204645	      0.91972982	      0.45372630	     28.43792620	     -0.79663304	    -15.06948816	     11.32001670	     11.32001670	      0.41157268	      7.17561945	      8.87129044	      0.80969425	     -3.91943968	    -13.36338019	     13.78399768	     13.78399768	     18.70129605	     -5.57053407	     -6.43548458	    -10.51296838	      1.34199385	      1.40657273	    -15.80364074	    -16.49059003	    -18.30401151	     25.18081690	     47.65488331	      0.00000000	      0.00000000	     17.88609902	    -16.33826348	     -2.23596973	     62.38698744	     46.63400174	      0.00000000	      0.00000000
     16.88385714	     -4.68183407	     -3.52537710	     -3.63598649	      0.96484973	      0.91858016	      0.45581304	     27.82621075	     -0.54378505	    -15.00330158	     12.32685798	     12.32685798	      0.49446746	      6.70420061	      8.40197193	     -0.12793964	     -4.10899787	    -13.36683396	     13.70589713	     13.70589713	     19.14435057	     -5.57355568	     -6.36386474	    -10.27742658	      1.63838547	      1.48518778	    -15.97515762	    -16.33579603	    -18.23882051	     25.12593332	     47.64383788	      0.00000000	      0.00000000	     17.47947314	    -16.12875822	     -2.25637146	     62.45888437	     46.63712099	      0.00000000	      0.00000000
     16.89607143	     -4.48714985	     -3.44970778	     -3.68923287	      0.96781656	      0.91744180	      0.45804109	     27.16502999	     -0.37328321	    -14.14463856	     13.24110880	     13.24110880	     -0.82203780	      5.02746031	      3.72222007	     -1.02211004	     -4.16128443	    -13.58783032	     13.93130028	     13.93130028	     20.47807280	     -4.82177611	     -4.19477994	    -10.14216249	      1.65692281	      1.20428961	    -15.99492779	    -16.23372503	    -17.70129548	     25.73024195	     47.49978021	      0.00000000	      0.00000000	     16.27429804	    -16.00262761	     -3.37090956	     64.24678569	     46.78103500	      0.00000000	      0.00000000
     16.90828571	     -4.33293587	     -3.50045945	     -3.70135421	      0.97073241	      0.91650601	      0.46029457	     26.59704401	     -0.17262181	    -13.66349882	     14.28953689	     14.28953689	     -1.31606424	      3.91407423	      1.37560197	     -1.73797701	     -4.39116499	    -13.67718313	     14.35645404	     14.35645404	     21.27625547	     -4.54301164	     -3.16932192	     -9.94044164	      1.86616128	      1.14553739	    -15.80137966	    -16.04779152	    -17.13522773	     25.67707026	     47.39611841	      0.00000000	      0.00000000	     15.56695063	    -15.72344130	     -3.88690327	     64.58442895	     46.85605420	      0.00000000	      0.00000000
     16.92050000	     -4.11762228	     -3.66027662	     -3.67978337	      0.97356985	      0.91604137	      0.46255564	     25.98012773	      0.05506480	    -13.53374707	     15.34917914	     15.34917914	     -1.06546015	      3.47765768	      0.96370515	     -2.45691630	     -4.73238934	    -13.56480888	     14.82422134	     14.82422134	     21.47094281	     -4.79151815	     -3.13356694	     -9.85590761	      2.21597286	      1.27032390	    -15.58039959	    -15.80613632	    -17.07273940	     25.74302763	     47.38496868	      0.00000000	      0.00000000	     15.03564727	    -15.41711888	     -3.84436713	     64.49935922	     46.85013260	      0.00000000	      0.00000000
     16.93271429	     -4.02891201	     -3.72156879	     -3.63618166	      0.97604494	      0.91558413	      0.46490539	     25.71420909	      0.20420120	    -13.01774687	     16.60726358	     16.60726358	     -0.74527119	      2.45669613	      0.17616829	     -2.67491663	     -5.06768656	    -13.34473374	     15.92186038	     15.92186038	     21.69391974	     -5.26266118	     -2.96828555	     -9.68722347	      2.45815323	      1.33081721	    -15.15379931	    -15.48518856	    -16.96913180	     25.86208146	     47.36488392	      0.00000000	      0.00000000	     14.43381539	    -15.11716508	     -3.99833612	     64.53976754	     46.86292235	      0.00000000	      0.00000000
     16.94492857	     -4.06123717	     -3.86383916	     -3.56434909	      0.97824278	      0.91541505	      0.46740624	     25.45869664	      0.50133841	    -12.44750060	     17.48117577	     17.48117577	     -0.52130619	      1.34607310	     -0.77007862	     -2.43330721	     -5.59198355	    -13.00964440	     17.59954951	     17.59954951	     21.81964909	     -5.98571634	     -2.75910812	     -9.44258002	      2.78763904	      1.26601420	    -14.47097781	    -15.12006281	    -16.79628832	     25.95307904	     47.33767216	      0.00000000	      0.00000000	     13.61856557	    -14.74986757	     -4.36337273	     64.54640346	     46.89209852	      0.00000000	      0.00000000
     16.95714286	     -3.88240436	     -4.03724811	     -3.50568888	      0.98031176	      0.91601987	      0.47001988	     24.82864854	      0.84772519	    -12.04536292	     17.94658196	     17.94658196	     -0.55473457	      0.41184672	     -2.59610071	     -2.31146030	     -6.16339634	    -12.70348185	     19.44159407	     19.44159407	     21.71241927	     -6.76527516	     -2.53927647	     -9.48561312	      3.07700170	      0.93548055	    -13.14548340	    -14.90307571	    -16.06626138	     25.45390629	     47.25735398	      0.00000000	      0.00000000	     12.53231072	    -14.24875664	     -5.75132677	     64.78254059	     47.01968497	      0.00000000	      0.00000000
     16.96935714	     -3.77182526	     -4.22567647	     -3.41570680	      0.98199029	      0.91684795	      0.47265668	     24.34870624	      1.12813670	    -11.95208677	     18.51591736	     18.51591736	      0.09764073	      0.14550138	     -2.92992996	     -1.73719230	     -6.83744779	    -12.27366026	     21.89442596	     21.89442596	     21.18561470	     -7.88915611	     -2.93213271	     -9.52691848	      3.42116476	      1.09381251	    -12.25361834	    -14.51416786	    -15.90305141	     25.70123601	     47.23337019	      0.00000000	      0.00000000	     11.95231746	    -13.88160749	     -5.65990808	     64.39230204	     47.00590095	      0.00000000	      0.00000000
     16.98157143	     -3.78578797	     -4.37743253	     -3.32489192	      0.98324390	      0.91779149	      0.47538801	     23.96483585	      1.41662000	    -11.77977736	     18.89777454	     18.89777454	      0.75350382	     -0.23214143	     -3.15204229	     -0.71429693	     -7.51662337	    -11.68291895	     24.80039482	     24.80039482	     20.15838067	     -9.42535481	     -3.79281149	     -9.45309431	      3.68295924	      1.12422900	    -11.10104507	    -14.12400634	    -15.58941385	     25.92398247	     47.19511359	      0.00000000	      0.00000000	     11.28670833	    -13.50690103	     -5.76137591	     63.74054692	     47.00485849	      0.00000000	      0.00000000
     16.99378571	     -3.71965151	     -4.61899280	     -3.18671600	      0.98427395	      0.91902468	      0.47813513	     23.36643793	      1.77854913	    -11.85218941	     19.02340150	     19.02340150	      1.42330539	     -0.26747266	     -3.36337149	      0.52084163	     -8.35477432	    -11.05298024	     28.18824162	     28.18824162	     18.91085048	    -10.94511227	     -4.52918673	     -9.54265736	      4.03738977	      1.25756291	     -9.93070256	    -13.74798879	    -15.34291928	     26.26251518	     47.16312973	      0.00000000	      0.00000000	     10.68511153	    -13.08695512	     -5.75987667	     63.15919002	     46.99467163	      0.00000000	      0.00000000
     17.00600000	     -3.64753192	     -4.81610187	     -3.04282783	      0.98499506	      0.92034121	      0.48085947	     22.71436104	      2.09920520	    -11.96986242	     19.01213378	     19.01213378	      2.06504142	     -0.19289508	     -3.54247451	      1.98610792	     -9.15908392	    -10.36117971	     31.88144213	     31.88144213	     17.33471631	    -12.54079440	     -5.22796894	     -9.66548112	      4.31433463	      1.36955101	     -8.62223274	    -13.37099058	    -15.07312812	     26.72093357	     47.12625273	      0.00000000	      0.00000000	     10.11063414	    -12.69966279	     -5.75820999	     62.48160133	     46.98273820	      0.00000000	      0.00000000
     17.01821429	     -3.69583921	     -5.00651317	     -2.85552370	      0.98542119	      0.92147091	      0.48348730	     22.11807925	      2.40944827	    -12.20462052	     18.83612487	     18.83612487	      2.65365205	     -0.00605319	     -3.68645984	      3.82255664	     -9.94541843	     -9.51361388	     35.83374740	     35.83374740	     15.39512617	    -14.26368047	     -5.93640605	     -9.64202133	      4.59018294	      1.37656098	     -7.26160246	    -13.02914073	    -14.70763082	     27.30214421	     47.07591912	      0.00000000	      0.00000000	      9.43894053	    -12.30566689	     -5.79279405	     61.58385805	     46.97010043	      0.00000000	      0.00000000
